<?xml version="1.0" standalone="no"?>
<!DOCTYPE svg PUBLIC "-//W3C//DTD SVG 20010904//EN"
 "http://www.w3.org/TR/2001/REC-SVG-20010904/DTD/svg10.dtd">
<svg version="1.0" xmlns="http://www.w3.org/2000/svg"
 width="1000.000000pt" height="1000.000000pt" viewBox="0 0 1000.000000 1000.000000"
 preserveAspectRatio="xMidYMid meet">
<metadata>
Created by potrace 1.14, written by Peter Selinger 2001-2017
</metadata>
<g transform="translate(0.000000,1000.000000) scale(0.100000,-0.100000)"
fill="#000000" stroke="none">
<path d="M4666 9989 c-1046 -67 -2057 -474 -2881 -1160 -136 -113 -414 -387
-544 -535 -515 -587 -886 -1286 -1081 -2039 -327 -1259 -146 -2611 499 -3734
221 -385 448 -685 761 -1005 424 -433 849 -743 1375 -1001 512 -252 1025 -406
1575 -474 1398 -173 2762 228 3845 1130 136 113 414 387 544 535 515 587 886
1286 1081 2039 327 1259 146 2611 -499 3734 -221 385 -448 685 -761 1005 -424
433 -849 743 -1375 1001 -794 391 -1651 560 -2539 504z m477 -2025 c43 -22
401 -343 1441 -1293 877 -800 1391 -1276 1400 -1296 37 -76 2 -174 -74 -212
-43 -22 -53 -23 -337 -23 l-293 0 -2 -1197 -3 -1198 -26 -55 c-33 -70 -89
-126 -159 -159 l-55 -26 -570 0 -570 0 -57 28 c-80 39 -142 111 -168 194 -19
63 -20 92 -20 909 l0 844 -650 0 -649 0 -3 -864 -3 -863 -35 -69 c-25 -48 -51
-81 -88 -111 -91 -74 -86 -74 -708 -71 l-549 3 -57 27 c-66 31 -128 91 -160
156 l-23 47 -3 1203 -2 1202 -293 0 c-284 0 -294 1 -337 23 -75 37 -109 132
-76 210 9 22 456 436 1397 1295 762 694 1396 1270 1409 1279 86 61 224 68 323
17z"/>
</g>
</svg>
