<?xml version="1.0" standalone="no"?>
<!DOCTYPE svg PUBLIC "-//W3C//DTD SVG 20010904//EN"
 "http://www.w3.org/TR/2001/REC-SVG-20010904/DTD/svg10.dtd">
<svg version="1.0" xmlns="http://www.w3.org/2000/svg"
 width="520.000000pt" height="520.000000pt" viewBox="0 0 520.000000 520.000000"
 preserveAspectRatio="xMidYMid meet">
<metadata>
Created by potrace 1.14, written by Peter Selinger 2001-2017
</metadata>
<g transform="translate(0.000000,520.000000) scale(0.100000,-0.100000)"
fill="#000000" stroke="none">
<path d="M549 5190 c-164 -16 -286 -74 -389 -186 -72 -78 -114 -160 -137 -264
-17 -81 -18 -187 -18 -2145 0 -1952 1 -2064 18 -2137 28 -118 69 -192 156
-278 91 -90 165 -132 281 -157 81 -17 187 -18 2145 -18 1952 0 2064 1 2137 18
118 28 192 69 278 156 90 91 132 165 157 281 17 81 18 187 18 2145 0 1952 -1
2064 -18 2137 -28 118 -69 192 -156 278 -87 87 -163 130 -271 156 -71 17 -191
18 -2100 20 -1114 1 -2059 -2 -2101 -6z m1406 -450 c81 -25 163 -67 175 -89
11 -23 -230 -829 -252 -842 -13 -7 -63 18 -217 108 -115 67 -201 123 -201 132
0 26 222 706 234 714 20 14 188 -1 261 -23z m-458 -46 c7 -18 3 -30 -99 -346
-44 -138 -75 -219 -85 -222 -16 -7 -223 104 -255 136 -18 18 -17 21 22 97 72
138 170 239 310 319 61 35 97 40 107 16z m834 -290 c67 -134 126 -307 189
-557 26 -104 52 -193 58 -199 5 -5 16 -8 24 -6 8 1 68 66 135 143 137 160 315
335 418 413 131 98 225 132 370 132 104 0 189 -18 278 -59 68 -30 86 -54 64
-80 -8 -9 -292 -360 -632 -779 -524 -647 -621 -763 -640 -760 -26 6 -743 449
-749 464 -7 17 408 1404 419 1401 6 -2 35 -53 66 -113z m1764 -366 c62 -82
110 -182 136 -288 31 -121 24 -317 -16 -440 -66 -205 -135 -317 -378 -606
-238 -284 -439 -515 -458 -527 -12 -8 -79 29 -295 163 -340 210 -337 208 -331
230 5 19 1195 1493 1233 1528 33 29 48 20 109 -60z m-2665 -164 c219 -124 401
-231 403 -238 3 -7 -22 -104 -55 -214 -44 -146 -66 -203 -78 -207 -11 -4 -138
69 -358 205 -387 240 -345 197 -362 382 -8 99 -1 263 14 286 4 7 14 12 22 12
9 0 195 -102 414 -226z m-53 -650 c148 -91 272 -169 277 -174 10 -10 -39 -194
-57 -217 -5 -7 -17 -13 -26 -13 -13 0 -419 244 -438 264 -4 3 -20 65 -38 138
-33 134 -32 168 0 168 8 0 135 -75 282 -166z m456 -285 c56 -30 653 -403 659
-413 4 -6 8 -13 8 -16 0 -9 -140 -180 -148 -180 -4 0 -144 85 -312 189 -225
139 -306 194 -308 210 -4 23 44 189 60 209 13 15 14 15 41 1z m-452 -184 c75
-47 143 -93 150 -101 10 -12 2 -51 -46 -212 -71 -244 -78 -262 -104 -262 -11
0 -24 8 -29 18 -19 36 -155 609 -149 625 3 9 14 17 23 17 10 0 79 -38 155 -85z
m590 -368 c189 -117 265 -169 267 -184 4 -29 -632 -813 -659 -813 -24 0 -26 4
-83 230 l-48 185 107 360 c59 198 112 366 117 373 6 6 16 12 23 12 7 0 131
-73 276 -163z m970 -133 c156 -97 292 -183 302 -192 10 -9 15 -22 12 -30 -12
-32 -131 -161 -149 -162 -31 0 -606 361 -606 381 0 22 126 179 144 179 7 0
141 -79 297 -176z m-249 -311 c204 -126 290 -184 294 -200 5 -18 -31 -64 -202
-257 -114 -130 -213 -236 -220 -236 -23 0 -499 430 -502 454 -2 14 33 65 114
166 168 208 204 250 216 250 6 0 141 -80 300 -177z m-484 -584 c180 -161 237
-217 237 -235 0 -16 -90 -124 -299 -358 -164 -185 -304 -336 -311 -336 -7 0
-18 6 -24 14 -6 7 -50 159 -97 337 -46 178 -89 339 -94 357 -8 32 -4 39 152
233 108 134 166 199 179 199 11 0 123 -92 257 -211z"/>
</g>
</svg>
